<?xml version="1.0" standalone="no"?><!DOCTYPE svg PUBLIC "-//W3C//DTD SVG 1.1//EN" "http://www.w3.org/Graphics/SVG/1.1/DTD/svg11.dtd"><svg class="icon" width="48px" height="48.00px" viewBox="0 0 1024 1024" version="1.1" xmlns="http://www.w3.org/2000/svg"><path fill="#154171" d="M512.2 174.4c-16.3 0-29.1-13.3-29.1-29.1V31.1c0-16.3 13.3-29.1 29.1-29.1s29.1 13.3 29.1 29.1v114.2c0 16.3-12.7 29.1-29.1 29.1z m-248.8 64.2c-10.2 0-19.9-5.6-25.5-14.8l-56.6-98.9c-8.7-13.8-4.6-31.6 9.2-40.3s31.6-4.6 40.3 9.2c0.5 0.5 1 1.5 1 2l57.1 98.9c8.2 13.8 3.1 31.6-10.7 39.8-4.6 2.6-9.7 4.1-14.8 4.1z m487.5 0c-16.3 0-29.1-13.3-29.1-29.1 0-5.1 1.5-10.2 4.1-14.3L783 96.3c8.2-13.8 26-18.9 39.8-10.7s18.9 26 10.7 39.8l-57.1 98.9c-5.1 8.7-14.8 14.3-25.5 14.3z m202 711H851.8V553.8c0.6-180.5-144.7-325.9-324.8-326.4h-30.1c-179.5 0-325.4 145.9-325.9 325.9v396.3H71.1c-19.9 0-36.2 16.3-36.2 36.2 0 19.9 16.3 36.2 36.2 36.2h882.3c19.9 0 36.2-16.3 35.7-36.2 0-19.9-16.3-36.2-36.2-36.2zM414.8 768.5c0 16.3-13.3 29.1-29.1 29.1-16.3 0-29.1-13.3-29.1-29.1V615c0-16.3 13.3-29.1 29.1-29.1 16.3 0 29.1 13.3 29.1 29.1v153.5z" /></svg>