<?xml version="1.0" standalone="no"?><!DOCTYPE svg PUBLIC "-//W3C//DTD SVG 1.1//EN" "http://www.w3.org/Graphics/SVG/1.1/DTD/svg11.dtd"><svg t="1661923523381" class="icon" viewBox="0 0 1024 1024" version="1.1" xmlns="http://www.w3.org/2000/svg" p-id="1151" xmlns:xlink="http://www.w3.org/1999/xlink" width="200" height="200"><path d="M358.7584 494.5408C320 450.7648 268.322133 426.666667 213.213867 426.666667s-106.786133 24.098133-145.527467 67.874133c-78.711467 88.9344-78.711467 233.608533 0 322.542933l145.527467 164.4032 145.527467-164.4032C437.469867 728.149333 437.469867 583.4752 358.7584 494.5408zM333.192533 794.453333l-119.9616 135.5264L93.252267 794.453333c-67.6864-76.4416-67.6864-200.840533 0-277.282133C125.422933 480.8192 168.0384 460.8 213.213867 460.8s87.808 20.0192 119.9616 56.3712C400.861867 593.6128 400.861867 717.994667 333.192533 794.453333z" p-id="1152"></path><path d="M831.9488 418.2528l110.318933-124.347733c59.357867-66.901333 59.357867-175.7184 0-242.619733C912.913067 18.210133 873.728 0 831.931733 0c-41.7792 0-80.964267 18.210133-110.318933 51.285333-59.357867 66.901333-59.357867 175.7184 0 242.619733L831.9488 418.2528zM747.144533 73.949867C769.928533 48.264533 800.034133 34.133333 831.931733 34.133333c31.914667 0 62.020267 14.1312 84.804267 39.816533 48.264533 54.391467 48.264533 142.8992 0 197.290667l-84.7872 95.5904-84.804267-95.5904C698.88 216.849067 698.88 128.341333 747.144533 73.949867z" p-id="1153"></path><path d="M897.774933 930.423467c-9.198933-2.065067-18.3296 3.703467-20.394667 12.9024-1.962667 8.704-5.768533 16.708267-11.3152 23.7568-5.819733 7.406933-4.5568 18.141867 2.8672 23.9616 3.140267 2.4576 6.843733 3.652267 10.530133 3.652267 5.0688 0 10.069333-2.235733 13.431467-6.519467 8.6016-10.922667 14.7456-23.825067 17.783467-37.341867C912.7424 941.6192 906.973867 932.488533 897.774933 930.423467z" p-id="1154"></path><path d="M546.048 529.066667c-7.389867-0.017067-14.574933-1.3312-21.367467-3.925333-8.738133-3.328-18.653867 1.058133-22.033067 9.864533-3.345067 8.8064 1.0752 18.670933 9.864533 22.033067 10.683733 4.061867 21.930667 6.144 33.501867 6.161067l6.0928 0c9.437867 0 17.066667-7.6288 17.066667-17.066667s-7.6288-17.066667-17.066667-17.066667L546.048 529.066667z" p-id="1155"></path><path d="M505.531733 421.137067c3.089067 0 6.1952-0.836267 9.0112-2.577067 7.560533-4.7104 15.9232-7.594667 24.814933-8.584533 9.3696-1.041067 16.128-9.472 15.104-18.8416s-9.403733-16.059733-18.8416-15.104c-14.0288 1.553067-27.204267 6.0928-39.150933 13.550933-8.004267 4.983467-10.427733 15.5136-5.444267 23.517867C494.267733 418.286933 499.831467 421.137067 505.531733 421.137067z" p-id="1156"></path><path d="M308.292267 989.866667l-34.133333 0c-9.437867 0-17.066667 7.6288-17.066667 17.066667s7.6288 17.066667 17.066667 17.066667l34.133333 0c9.437867 0 17.066667-7.6288 17.066667-17.066667S317.713067 989.866667 308.292267 989.866667z" p-id="1157"></path><path d="M614.280533 682.666667c-1.467733 0-2.9184 0.034133-4.369067 0.1024-9.4208 0.375467-16.725333 8.328533-16.349867 17.749333 0.3584 9.181867 7.936 16.366933 17.032533 16.366933 0.238933 0 0.477867 0 0.7168-0.017067L644.744533 716.8c9.437867 0 17.066667-7.6288 17.066667-17.066667s-7.6288-17.066667-17.066667-17.066667L614.280533 682.666667z" p-id="1158"></path><path d="M605.7472 409.6l34.133333 0c9.437867 0 17.066667-7.6288 17.066667-17.066667s-7.6288-17.066667-17.066667-17.066667l-34.133333 0c-9.437867 0-17.066667 7.6288-17.066667 17.066667S596.309333 409.6 605.7472 409.6z" p-id="1159"></path><path d="M815.4112 682.666667c-9.437867 0-17.066667 7.6288-17.066667 17.066667s7.6288 17.066667 17.066667 17.066667l34.133333 0c9.437867 0 17.066667-7.6288 17.066667-17.066667s-7.6288-17.066667-17.066667-17.066667L815.4112 682.666667z" p-id="1160"></path><path d="M876.3904 546.133333c0-9.437867-7.6288-17.066667-17.066667-17.066667l-34.133333 0c-9.437867 0-17.066667 7.6288-17.066667 17.066667s7.6288 17.066667 17.066667 17.066667l34.133333 0C868.744533 563.2 876.3904 555.5712 876.3904 546.133333z" p-id="1161"></path><path d="M713.0112 716.8l34.133333 0c9.437867 0 17.066667-7.6288 17.066667-17.066667s-7.6288-17.066667-17.066667-17.066667l-34.133333 0c-9.437867 0-17.066667 7.6288-17.066667 17.066667S703.5904 716.8 713.0112 716.8z" p-id="1162"></path><path d="M742.280533 409.6c9.437867 0 17.066667-7.6288 17.066667-17.066667s-7.6288-17.066667-17.066667-17.066667l-34.133333 0c-9.437867 0-17.066667 7.6288-17.066667 17.066667s7.6288 17.066667 17.066667 17.066667L742.280533 409.6z" p-id="1163"></path><path d="M620.3904 529.066667c-9.437867 0-17.066667 7.6288-17.066667 17.066667s7.6288 17.066667 17.066667 17.066667l34.133333 0c9.437867 0 17.066667-7.6288 17.066667-17.066667s-7.6288-17.066667-17.066667-17.066667L620.3904 529.066667z" p-id="1164"></path><path d="M773.9904 546.133333c0-9.437867-7.6288-17.066667-17.066667-17.066667l-34.133333 0c-9.437867 0-17.066667 7.6288-17.066667 17.066667s7.6288 17.066667 17.066667 17.066667l34.133333 0C766.344533 563.2 773.9904 555.5712 773.9904 546.133333z" p-id="1165"></path><path d="M1014.203733 608.119467c-1.501867-9.3184-10.2912-15.684267-19.5584-14.148267-9.3184 1.4848-15.650133 10.257067-14.148267 19.5584 0.477867 3.037867 0.750933 6.126933 0.7168 9.4208 0 5.7344-0.8192 11.400533-2.423467 16.861867-2.645333 9.045333 2.525867 18.5344 11.588267 21.179733 1.604267 0.4608 3.208533 0.682667 4.795733 0.682667 7.389867 0 14.199467-4.8128 16.384-12.270933 2.5088-8.584533 3.7888-17.476267 3.7888-26.333867C1015.381333 618.154667 1015.005867 613.12 1014.203733 608.119467z" p-id="1166"></path><path d="M717.892267 989.866667l-34.133333 0c-9.437867 0-17.066667 7.6288-17.066667 17.066667s7.6288 17.066667 17.066667 17.066667l34.133333 0c9.437867 0 17.066667-7.6288 17.066667-17.066667S727.313067 989.866667 717.892267 989.866667z" p-id="1167"></path><path d="M615.492267 989.866667l-34.133333 0c-9.437867 0-17.066667 7.6288-17.066667 17.066667s7.6288 17.066667 17.066667 17.066667l34.133333 0c9.437867 0 17.066667-7.6288 17.066667-17.066667S624.913067 989.866667 615.492267 989.866667z" p-id="1168"></path><path d="M803.242667 853.333333c0-9.437867-7.6288-17.066667-17.066667-17.066667l-34.133333 0c-9.437867 0-17.066667 7.6288-17.066667 17.066667s7.6288 17.066667 17.066667 17.066667l34.133333 0C795.5968 870.4 803.242667 862.7712 803.242667 853.333333z" p-id="1169"></path><path d="M700.842667 853.333333c0-9.437867-7.6288-17.066667-17.066667-17.066667l-34.133333 0c-9.437867 0-17.066667 7.6288-17.066667 17.066667s7.6288 17.066667 17.066667 17.066667l34.133333 0C693.1968 870.4 700.842667 862.7712 700.842667 853.333333z" p-id="1170"></path><path d="M819.080533 989.866667l-32.938667 0c-9.437867 0-17.066667 7.6288-17.066667 17.066667s7.6288 17.066667 17.066667 17.066667l33.6384-0.017067 0.494933-17.066667 0 17.066667c9.437867 0 16.469333-7.6288 16.469333-17.066667C836.744533 997.495467 828.5184 989.866667 819.080533 989.866667z" p-id="1171"></path><path d="M879.4624 899.7376c3.6864 0 7.424-1.194667 10.530133-3.652267 7.424-5.8368 8.686933-16.571733 2.8672-23.9616-8.584533-10.9056-19.6608-19.9168-32.068267-26.077867-8.482133-4.215467-18.688-0.750933-22.8864 7.68-4.1984 8.448-0.750933 18.688 7.68 22.8864 7.901867 3.908267 14.967467 9.659733 20.4288 16.622933C869.393067 897.501867 874.3936 899.7376 879.4624 899.7376z" p-id="1172"></path><path d="M944.554667 678.0416C937.233067 681.1136 929.4848 682.666667 921.480533 682.666667l-3.669333 0c-9.437867 0-17.066667 7.6288-17.066667 17.066667s7.6288 17.066667 17.066667 17.066667l3.669333 0c12.561067 0 24.763733-2.4576 36.266667-7.287467 8.704-3.652267 12.782933-13.653333 9.130667-22.340267C963.242667 678.485333 953.173333 674.389333 944.554667 678.0416z" p-id="1173"></path><path d="M478.3616 509.525333c8.942933-2.952533 13.824-12.5952 10.888533-21.5552-1.962667-5.9904-2.9696-12.253867-2.9696-18.568533 0.017067-2.577067 0.170667-5.154133 0.477867-7.662933 1.1776-9.352533-5.444267-17.902933-14.7968-19.063467-9.642667-1.0752-17.902933 5.4784-19.063467 14.7968-0.477867 3.857067-0.733867 7.7824-0.750933 11.844267 0 10.0352 1.570133 19.899733 4.6592 29.320533 2.372267 7.185067 9.045333 11.741867 16.213333 11.741867C474.794667 510.378667 476.603733 510.122667 478.3616 509.525333z" p-id="1174"></path><path d="M410.692267 989.866667l-34.133333 0c-9.437867 0-17.066667 7.6288-17.066667 17.066667s7.6288 17.066667 17.066667 17.066667l34.133333 0c9.437867 0 17.066667-7.6288 17.066667-17.066667S420.113067 989.866667 410.692267 989.866667z" p-id="1175"></path><path d="M582.3488 863.470933c6.485333 0 12.663467-3.703467 15.530667-9.966933 3.908267-8.584533 0.1536-18.705067-8.413867-22.613333-8.004267-3.669333-15.2576-9.181867-20.957867-15.9744-6.075733-7.2192-16.827733-8.157867-24.046933-2.082133-7.2192 6.058667-8.157867 16.827733-2.082133 24.046933 8.942933 10.632533 20.309333 19.3024 32.887467 25.0368C577.570133 862.958933 579.976533 863.470933 582.3488 863.470933z" p-id="1176"></path><path d="M968.465067 541.661867c-12.1856-7.0656-25.4976-11.2128-39.543467-12.322133-9.3696-0.682667-17.6128 6.263467-18.346667 15.684267-0.733867 9.403733 6.280533 17.6128 15.684267 18.346667 8.9088 0.699733 17.3568 3.328 25.088 7.816533 2.696533 1.570133 5.649067 2.304 8.5504 2.304 5.888 0 11.6224-3.054933 14.779733-8.4992C979.4048 556.8512 976.622933 546.4064 968.465067 541.661867z" p-id="1177"></path><path d="M513.092267 989.866667l-34.133333 0c-9.437867 0-17.066667 7.6288-17.066667 17.066667s7.6288 17.066667 17.066667 17.066667l34.133333 0c9.437867 0 17.066667-7.6288 17.066667-17.066667S522.513067 989.866667 513.092267 989.866667z" p-id="1178"></path><path d="M555.605333 765.252267c1.6896-8.772267 5.239467-16.878933 10.564267-24.1152 5.5808-7.5776 3.959467-18.261333-3.6352-23.8592-7.594667-5.563733-18.261333-3.959467-23.8592 3.6352-8.3456 11.3664-13.943467 24.1152-16.605867 37.922133-1.774933 9.250133 4.283733 18.193067 13.550933 19.985067 1.0752 0.2048 2.167467 0.3072 3.2256 0.3072C546.8672 779.093333 554.018133 773.410133 555.605333 765.252267z" p-id="1179"></path><path d="M836.1472 256c51.746133 0 93.866667-42.120533 93.866667-93.866667S887.893333 68.266667 836.1472 68.266667s-93.866667 42.120533-93.866667 93.866667S784.401067 256 836.1472 256zM836.1472 102.4c32.938667 0 59.733333 26.794667 59.733333 59.733333s-26.794667 59.733333-59.733333 59.733333-59.733333-26.794667-59.733333-59.733333S803.2256 102.4 836.1472 102.4z" p-id="1180"></path><path d="M213.213867 529.066667c-56.4736 0-102.4 45.9264-102.4 102.4s45.9264 102.4 102.4 102.4 102.4-45.9264 102.4-102.4S269.687467 529.066667 213.213867 529.066667zM213.213867 699.733333c-37.649067 0-68.266667-30.6176-68.266667-68.266667s30.6176-68.266667 68.266667-68.266667 68.266667 30.6176 68.266667 68.266667S250.862933 699.733333 213.213867 699.733333z" p-id="1181"></path></svg>