<?xml version="1.0" standalone="no"?><!DOCTYPE svg PUBLIC "-//W3C//DTD SVG 1.1//EN" "http://www.w3.org/Graphics/SVG/1.1/DTD/svg11.dtd"><svg t="1654253690619" class="icon" viewBox="0 0 1024 1024" version="1.1" xmlns="http://www.w3.org/2000/svg" p-id="2207" xmlns:xlink="http://www.w3.org/1999/xlink" width="48" height="48"><defs><style type="text/css">@font-face { font-family: feedback-iconfont; src: url("//at.alicdn.com/t/font_1031158_u69w8yhxdu.woff2?t=1630033759944") format("woff2"), url("//at.alicdn.com/t/font_1031158_u69w8yhxdu.woff?t=1630033759944") format("woff"), url("//at.alicdn.com/t/font_1031158_u69w8yhxdu.ttf?t=1630033759944") format("truetype"); }
</style></defs><path d="M1008.274286 142.262857L890.514286 24.685714a54.857143 54.857143 0 0 0-75.154286 0l-117.577143 117.76a53.028571 53.028571 0 0 0 0 75.154286 53.028571 53.028571 0 0 0 75.154286 0l28.708571-28.708571v585.142857a117.394286 117.394286 0 1 1-234.605714 0V265.325714a224.365714 224.365714 0 0 0-448.548571 0V833.828571L91.428571 805.851429a53.211429 53.211429 0 0 0-75.702857 75.337142l117.76 117.577143a53.211429 53.211429 0 0 0 75.154286 0l117.577143-117.76a53.211429 53.211429 0 0 0-75.154286-75.154285l-25.965714 26.148571v-566.857143a118.125714 118.125714 0 0 1 236.068571 0v508.16a223.634286 223.634286 0 0 0 447.085715 0V192.182857L932.571429 217.417143a53.211429 53.211429 0 0 0 75.154285-75.154286z" p-id="2208" fill="#2c2c2c"></path></svg>