<?xml version="1.0" standalone="no"?><!DOCTYPE svg PUBLIC "-//W3C//DTD SVG 1.1//EN" "http://www.w3.org/Graphics/SVG/1.1/DTD/svg11.dtd"><svg t="1657250325150" class="icon" viewBox="0 0 1024 1024" version="1.1" xmlns="http://www.w3.org/2000/svg" p-id="1519" xmlns:xlink="http://www.w3.org/1999/xlink" width="200" height="200"><defs><style type="text/css">@font-face { font-family: feedback-iconfont; src: url("//at.alicdn.com/t/font_1031158_u69w8yhxdu.woff2?t=1630033759944") format("woff2"), url("//at.alicdn.com/t/font_1031158_u69w8yhxdu.woff?t=1630033759944") format("woff"), url("//at.alicdn.com/t/font_1031158_u69w8yhxdu.ttf?t=1630033759944") format("truetype"); }
</style></defs><path d="M936 947.4H84c-11.6 0-21 9.4-21 21v0.6c0 11.6 9.4 21 21 21h852c11.6 0 21-9.4 21-21v-0.6c0-11.5-9.4-21-21-21zM784.7 819.7c1.1 0 2-0.9 2-2V396.1c0-1.1-0.9-2-2-2H661c-1.1 0-2 0.9-2 2v421.7c0 1.1 0.9 2 2 2h123.7z m-83.1-383h42.6v340.5h-42.6V436.7zM359 819.7c1.1 0 2-0.9 2-2V396.1c0-1.1-0.9-2-2-2H235.3c-1.1 0-2 0.9-2 2v421.7c0 1.1 0.9 2 2 2H359z m-83.2-383h42.6v340.5h-42.6V436.7zM148.2 883.3v0.5c0 11.6 9.4 21 21 21h681.7c11.6 0 21-9.4 21-21v-0.5c0-11.6-9.4-21-21-21H169.2c-11.6 0-21 9.4-21 21z m-42.6-532.5h808.9c23.5 0 42.6-19.1 42.6-42.6 0-18.6-12-34.5-28.7-40.2l-418-235.8-0.2-0.3-0.2 0.1-0.2-0.1-0.2 0.3L91.7 268C75 273.8 63 289.6 63 308.3c0 23.5 19.1 42.5 42.6 42.5z m808.8-42.6zM510 80.3l404.2 228H105.8L510 80.3zM105.6 308.2z m466.2 511.5c1.1 0 2-0.9 2-2V396.1c0-1.1-0.9-2-2-2H448.2c-1.1 0-2 0.9-2 2v421.7c0 1.1 0.9 2 2 2h123.6z m-83.1-383h42.6v340.5h-42.6V436.7z" p-id="1520"></path></svg>