<?xml version="1.0" standalone="no"?><!DOCTYPE svg PUBLIC "-//W3C//DTD SVG 1.1//EN" "http://www.w3.org/Graphics/SVG/1.1/DTD/svg11.dtd"><svg t="1661923532856" class="icon" viewBox="0 0 1024 1024" version="1.1" xmlns="http://www.w3.org/2000/svg" p-id="1319" xmlns:xlink="http://www.w3.org/1999/xlink" width="200" height="200"><path d="M881.338307 512.844768a28.158944 28.158944 0 0 0 28.158944-28.158944V114.184518A112.635776 112.635776 0 0 0 798.902998 0H338.926647a28.158944 28.158944 0 0 0-20.204042 8.518081l-1.267153 0.774371L122.243573 204.574728a28.158944 28.158944 0 0 0-7.954902 21.119208 4.294239 4.294239 0 0 0 0 1.33755v682.854393a112.635776 112.635776 0 0 0 110.594253 114.114121h574.65365a112.635776 112.635776 0 0 0 110.242266-113.410147V654.977038a28.405335 28.405335 0 0 0-56.81067 0v255.612815a55.754709 55.754709 0 0 1-53.783583 57.303451H224.46054a55.754709 55.754709 0 0 1-53.713186-57.303451V236.464733L350.401417 56.881067H799.184587a55.754709 55.754709 0 0 1 53.783583 57.303451v370.219717a28.158944 28.158944 0 0 0 28.158945 28.158944" p-id="1320"></path><path d="M377.78599 348.607727H671.061392a29.355699 29.355699 0 1 0 0-58.711398H377.78599a29.355699 29.355699 0 0 0 0 58.711398m0 175.9934H671.061392a29.355699 29.355699 0 1 0 0-58.711398H377.78599a29.355699 29.355699 0 0 0 0 58.711398m2.463907 175.993401h293.205005a29.355699 29.355699 0 0 0 0-58.711399H380.390692a29.355699 29.355699 0 0 0 0 58.711399" p-id="1321"></path></svg>