<?xml version="1.0" standalone="no"?><!DOCTYPE svg PUBLIC "-//W3C//DTD SVG 1.1//EN" "http://www.w3.org/Graphics/SVG/1.1/DTD/svg11.dtd"><svg t="1657250401646" class="icon" viewBox="0 0 1024 1024" version="1.1" xmlns="http://www.w3.org/2000/svg" p-id="1799" xmlns:xlink="http://www.w3.org/1999/xlink" width="200" height="200"><defs><style type="text/css">@font-face { font-family: feedback-iconfont; src: url("//at.alicdn.com/t/font_1031158_u69w8yhxdu.woff2?t=1630033759944") format("woff2"), url("//at.alicdn.com/t/font_1031158_u69w8yhxdu.woff?t=1630033759944") format("woff"), url("//at.alicdn.com/t/font_1031158_u69w8yhxdu.ttf?t=1630033759944") format("truetype"); }
</style></defs><path d="M511.913993 63.989249C317.882076 63.989249 159.973123 221.898203 159.973123 415.930119c0 187.323366 315.473879 519.998656 328.890979 534.103813 6.020494 6.364522 14.449185 9.976818 23.221905 9.976818 0.172014 0 0.516042 0 0.688056 0 8.944734 0 17.545439-4.128339 23.393919-11.008903l109.22896-125.054258c145.179909-177.690576 218.629934-314.957836 218.629934-407.845456C864.026877 221.898203 706.117924 63.989249 511.913993 63.989249zM511.913993 575.903242c-88.415253 0-159.973123-71.55787-159.973123-159.973123s71.55787-159.973123 159.973123-159.973123 159.973123 71.55787 159.973123 159.973123S600.329246 575.903242 511.913993 575.903242z" p-id="1800"></path></svg>